<?xml version="1.0" standalone="no"?>
<!DOCTYPE svg PUBLIC "-//W3C//DTD SVG 1.0//EN" "http://www.w3.org/TR/2001/REC-SVG-20010904/DTD/svg10.dtd">
<svg xmlns="http://www.w3.org/2000/svg" xmlns:xlink="http://www.w3.org/1999/xlink" id="body_1" width="256" height="140">

<g transform="matrix(1 0 0 1 0 0)">
	<g>
        <path d="M78.06593 92.58758C 90.8838 92.58758 101.27473 82.19665 101.27473 69.37879C 101.27473 56.56093 90.8838 46.17 78.06593 46.17C 65.24807 46.17 54.857143 56.56093 54.857143 69.37879C 54.857143 82.19665 65.24807 92.58758 78.06593 92.58758zM23.208792 139.00516C 36.026653 139.00516 46.417583 128.61423 46.417583 115.79637C 46.417583 102.97851 36.026653 92.58758 23.208792 92.58758C 10.39093 92.58758 0 102.97851 0 115.79637C 0 128.61423 10.39093 139.00516 23.208792 139.00516zM232.79121 139.00516C 245.60907 139.00516 256 128.61423 256 115.79637C 256 102.97851 245.60907 92.58758 232.79121 92.58758C 219.97334 92.58758 209.58241 102.97851 209.58241 115.79637C 209.58241 128.61423 219.97334 139.00516 232.79121 139.00516z" stroke="none" fill="#000000" fill-rule="nonzero" />
        <path d="M156.56546 70.35681C 155.82343 62.602818 155.44557 56.149025 149.5055 51.613167C 141.98264 45.868702 133.46117 49.596024 122.96446 45.807297C 112.65033 43.31214 105 34.15457 105 23.239437C 105 10.40465 115.57789 0 128.62637 0C 138.29063 0 146.59964 5.7074766 150.25957 13.882547C 155.86101 24.522125 152.22049 35.35004 159.25824 40.804127C 167.59149 47.262188 178.82617 42.532917 191.3621 48.65174C 195.3901 50.502693 198.79959 53.438457 201.20206 57.076923C 203.60452 60.715385 205 65.05655 205 69.71831C 205 80.633446 197.34967 89.791016 187.03554 92.28617C 176.53883 96.0749 168.01736 92.34757 160.4945 98.09204C 152.03503 104.55171 156.56389 115.35864 149.66936 126.774445C 145.75616 134.29156 137.80212 139.43661 128.62637 139.43661C 115.57789 139.43661 105 129.03197 105 116.19718C 105 106.873665 110.58189 98.83252 118.63789 95.130615C 131.17383 89.01179 142.40851 93.741066 150.74176 87.283C 155.5491 83.55743 156.56546 77.810265 156.56546 70.35681z" stroke="none" fill="#D0021B" fill-rule="nonzero" />
	</g>
</g>
</svg>