<?xml version="1.0" standalone="no"?>
<!DOCTYPE svg PUBLIC "-//W3C//DTD SVG 1.0//EN" "http://www.w3.org/TR/2001/REC-SVG-20010904/DTD/svg10.dtd">
<svg xmlns="http://www.w3.org/2000/svg" xmlns:xlink="http://www.w3.org/1999/xlink" id="body_1" width="1024" height="768">

<g transform="matrix(32 0 0 32 128 -0)">
    <path d="M12 2C 6.5 2 2 6.5 2 12C 2 17.5 6.5 22 12 22C 17.5 22 22 17.5 22 12C 22 6.5 17.5 2 12 2zM16.9 8.1L15.2 16.3C 15.099999 16.9 14.7 17 14.3 16.699999L14.3 16.699999L11.700001 14.699999C 11.1 15.299999 10.500001 15.799999 10.400001 15.999999C 10.200001 16.099998 10.1 16.3 9.900001 16.3C 9.6 16.3 9.6 16.099998 9.500001 15.9L9.500001 15.9L8.600001 12.9L5.9 12C 5.3 11.8 5.3 11.4 6 11.1L6 11.1L16.2 7.2000003C 16.6 7.1 17.1 7.3 16.9 8.1zM14.5 9L8.8 12.6L9.7 15.6L9.9 13.6L14.799999 9.200001C 15.1 8.9 14.9 8.9 14.5 9z" stroke="none" fill="#000000" fill-rule="nonzero" />
    <path d="M0 0L24 0L24 24L0 24z" stroke="none" fill="none" />
</g>
</svg>