<?xml version="1.0" standalone="no"?>
<!DOCTYPE svg PUBLIC "-//W3C//DTD SVG 1.0//EN" "http://www.w3.org/TR/2001/REC-SVG-20010904/DTD/svg10.dtd">
<svg xmlns="http://www.w3.org/2000/svg" xmlns:xlink="http://www.w3.org/1999/xlink" id="body_1" width="439" height="439">

<g transform="matrix(1.0010581 0 0 1.0010581 0 0)">
	<g>
        <path d="M414.41 24.123C 398.333 8.042 378.963 0 356.315 0L356.315 0L82.228 0C 59.58 0 40.21 8.042 24.126 24.123C 8.045 40.207 0.003 59.576 0.003 82.225L0.003 82.225L0.003 356.30902C 0.003 378.95602 8.045 398.32703 24.126 414.411C 40.21 430.495 59.579998 438.53702 82.228 438.53702L82.228 438.53702L356.312 438.53702C 378.96002 438.53702 398.33002 430.49503 414.407 414.411C 430.49103 398.32703 438.53302 378.957 438.53302 356.30902L438.53302 356.30902L438.53302 82.225C 438.532 59.576 430.49 40.204 414.41 24.123zM373.155 225.548L323.192 225.548L323.192 406.84L248.38998 406.84L248.38998 225.548L210.99 225.548L210.99 163.02L248.391 163.02L248.391 125.618004C 248.391 98.78001 254.67401 78.511 267.234 64.80501C 279.793 51.099007 300.53802 44.250008 329.476 44.250008L329.476 44.250008L379.43903 44.250008L379.43903 106.77601L348.03802 106.77601C 337.37503 106.77601 330.571 108.629005 327.62103 112.34401C 324.67203 116.05501 323.19302 122.574005 323.19302 131.90201L323.19302 131.90201L323.19302 163.02101L379.72702 163.02101L373.155 225.548z" stroke="none" fill="#000000" fill-rule="nonzero" />
	</g>
	<g>
	</g>
	<g>
	</g>
	<g>
	</g>
	<g>
	</g>
	<g>
	</g>
	<g>
	</g>
	<g>
	</g>
	<g>
	</g>
	<g>
	</g>
	<g>
	</g>
	<g>
	</g>
	<g>
	</g>
	<g>
	</g>
	<g>
	</g>
	<g>
	</g>
</g>
</svg>