<?xml version="1.0" encoding="UTF-8"?>
<svg xmlns="http://www.w3.org/2000/svg" xmlns:xlink="http://www.w3.org/1999/xlink" width="256pt" height="140pt" viewBox="0 0 256 140" version="1.1">
<g id="surface1">
<path style=" stroke:none;fill-rule:nonzero;fill:rgb(0%,0%,0%);fill-opacity:1;" d="M 78.066406 92.585938 C 90.882812 92.585938 101.273438 82.195312 101.273438 69.378906 C 101.273438 56.5625 90.882812 46.171875 78.066406 46.171875 C 65.25 46.171875 54.855469 56.5625 54.855469 69.378906 C 54.855469 82.195312 65.25 92.585938 78.066406 92.585938 Z M 23.207031 139.003906 C 36.027344 139.003906 46.417969 128.613281 46.417969 115.796875 C 46.417969 102.976562 36.027344 92.585938 23.207031 92.585938 C 10.390625 92.585938 0 102.976562 0 115.796875 C 0 128.613281 10.390625 139.003906 23.207031 139.003906 Z M 232.792969 139.003906 C 245.609375 139.003906 256 128.613281 256 115.796875 C 256 102.976562 245.609375 92.585938 232.792969 92.585938 C 219.972656 92.585938 209.582031 102.976562 209.582031 115.796875 C 209.582031 128.613281 219.972656 139.003906 232.792969 139.003906 Z M 232.792969 139.003906 "/>
<path style=" stroke:none;fill-rule:nonzero;fill:rgb(81.568627%,0.784314%,10.588235%);fill-opacity:1;" d="M 156.566406 70.355469 C 155.824219 62.601562 155.445312 56.148438 149.503906 51.613281 C 141.984375 45.867188 133.460938 49.597656 122.964844 45.808594 C 112.648438 43.3125 105 34.15625 105 23.238281 C 105 10.40625 115.578125 0 128.625 0 C 138.289062 0 146.601562 5.707031 150.257812 13.882812 C 155.859375 24.523438 152.21875 35.351562 159.257812 40.804688 C 167.589844 47.261719 178.824219 42.53125 191.363281 48.652344 C 195.390625 50.503906 198.800781 53.4375 201.203125 57.078125 C 203.605469 60.714844 205 65.054688 205 69.71875 C 205 80.632812 197.351562 89.792969 187.035156 92.285156 C 176.539062 96.074219 168.015625 92.347656 160.496094 98.09375 C 152.035156 104.550781 156.5625 115.359375 149.667969 126.773438 C 145.757812 134.292969 137.800781 139.4375 128.625 139.4375 C 115.578125 139.4375 105 129.03125 105 116.195312 C 105 106.875 110.582031 98.832031 118.636719 95.128906 C 131.175781 89.011719 142.410156 93.742188 150.742188 87.28125 C 155.550781 83.558594 156.566406 77.808594 156.566406 70.355469 Z M 156.566406 70.355469 "/>
</g>
</svg>
